<svg width="auto" height="auto" viewBox="0 0 452 221" fill="none" xmlns="http://www.w3.org/2000/svg">
<path d="M253.557 179.527C239.848 164.579 229.904 160.718 222.562 162.204C212.414 164.253 209.038 176.159 201.546 175.649C195.154 175.227 190.379 166.1 186.853 155.539C190.654 148.376 195.297 141.693 200.685 135.632C205.547 130.972 211.447 125.353 218.2 120.754C222.315 117.923 225.85 119.119 226.888 123.867C229.279 134.665 234.863 143.854 240.657 153.007C245.968 161.36 251.121 169.889 253.557 179.527Z" fill="#FA878B" stroke="#FA878B" stroke-width="4.39647" stroke-linecap="round" stroke-linejoin="round"/>
<path d="M248.87 217.574C254.146 209.766 255.728 200.674 255.131 190.905C255.025 188.874 254.805 186.807 254.515 184.75C254.265 183 253.919 181.265 253.477 179.553C251.042 169.881 245.88 161.422 240.569 153.034C234.766 143.88 229.139 134.691 226.782 123.894C225.736 119.146 222.201 117.95 218.077 120.781C211.315 125.38 205.406 130.998 200.535 135.659C195.145 141.721 190.496 148.404 186.686 155.566C181.206 165.914 178.438 177.482 178.641 189.19C178.641 189.77 178.641 190.351 178.693 190.949C179.107 200.99 181.727 210.117 187.486 217.618H127.325L147.109 172.422L180.909 95.1935L218.842 8.53027L256.766 95.1935L298.673 190.905L310.341 217.574H248.87Z" fill="#101210" stroke="#101210" stroke-width="4.39647" stroke-linecap="round" stroke-linejoin="round"/>
<path d="M347.342 195.345C348.555 194.759 350.525 195.318 353.251 197.024C361.376 201.943 370.461 205.061 379.894 206.169C389.238 207.242 397.482 206.142 404.628 202.872C412.542 199.231 415.033 194.246 412.102 187.915C410.256 183.888 406.791 179.975 401.709 176.176C396.627 172.378 385.436 165.405 368.137 155.258C346.337 142.408 331.154 132.422 322.59 125.3C311.247 115.88 303.075 105.709 298.075 94.7886C290.519 78.3165 289.868 62.3133 296.123 46.7791C302.261 31.538 313.281 20.2567 329.185 12.9351C340.024 7.87814 352.113 6.12286 363.943 7.88793C368.361 8.56051 372.656 9.87578 376.693 11.792C380.615 13.6737 383.047 15.6462 383.991 17.7097C384.444 18.7293 384.515 19.8774 384.193 20.9454C384.114 21.4183 383.93 21.8673 383.654 22.2598C383.379 22.6523 383.019 22.9783 382.602 23.214C381.45 23.7416 379.137 23.1261 375.638 21.3763C369.542 18.3873 362.869 16.761 356.082 16.6105C348.772 16.3292 342.389 17.4429 336.931 19.9518C333.854 21.2019 331.376 23.5886 330.011 26.6169C329.399 28.029 329.103 29.5581 329.144 31.0968C329.185 32.6355 329.562 34.1466 330.249 35.5242C331.931 39.1996 335.296 43.0773 340.343 47.1572C345.39 51.2371 353.057 56.2198 363.345 62.1052C396.014 81.0159 416.806 94.3314 425.722 102.052C435.102 110.211 441.983 119.081 446.368 128.659C450.056 136.605 451.976 145.257 451.996 154.018C452.102 162.406 450.181 170.695 446.395 178.181C439.284 192.173 427.671 202.863 411.557 210.249C396.732 217.043 381.353 217.922 365.42 212.887C354.242 209.37 347.732 205.583 345.891 201.526C345.365 200.389 345.229 199.109 345.504 197.886C345.581 197.345 345.788 196.831 346.108 196.388C346.429 195.945 346.852 195.587 347.342 195.345Z" fill="#101210"/>
<path d="M134.68 84.409L164.69 12.5003C166.695 7.27725 168.096 4.03853 168.893 2.78407C169.237 2.19895 169.718 1.70702 170.296 1.35138C170.874 0.995731 171.531 0.787212 172.208 0.744096C172.8 0.687086 173.397 0.755507 173.961 0.944895C174.524 1.13428 175.041 1.44038 175.479 1.84321C175.929 2.24784 176.295 2.73722 176.556 3.28338C176.817 3.82954 176.968 4.42178 177 5.02626C177.033 6.65156 176.696 8.26309 176.015 9.73928C175.46 11.2173 174.826 12.6644 174.116 14.0742L171.047 20.7481L93.7308 197.715L90.5741 204.688C87.8483 210.878 86.0897 214.553 85.2984 215.714C84.9281 216.277 84.4283 216.744 83.8409 217.074C83.2535 217.404 82.5954 217.589 81.9219 217.613C79.5771 217.789 78.2904 216.494 78.0618 213.727C77.965 212.241 78.8619 209.735 80.7436 206.191L102.559 158.085L99.0417 152.66C73.4836 113.789 54.6829 87.1542 44.9827 71.4394C35.2825 55.7246 17.2825 27.7246 0.904419 2.78407H85.2983L134.68 84.409Z" fill="#101210"/>
</svg>

