<svg width="190" height="217" viewBox="0 0 190 217" fill="none" xmlns="http://www.w3.org/2000/svg">
<path d="M130.559 176.221C116.599 161.008 106.477 157.059 98.993 158.58C88.66 160.663 85.2137 172.792 77.584 172.272C71.0776 171.839 66.2095 162.541 62.6169 151.793C66.4993 144.497 71.2369 137.689 76.7297 131.513C81.6797 126.762 87.6946 121.046 94.5696 116.353C98.7707 113.474 102.363 114.685 103.422 119.524C105.856 130.53 111.549 139.886 117.465 149.207C122.848 157.749 128.096 166.415 130.559 176.221Z" fill="#FA878B" stroke="#FA878B" stroke-width="2.92553" stroke-linecap="round" stroke-linejoin="round"/>
<path d="M125.803 214.979C131.197 207.027 132.789 197.765 132.186 187.818C132.075 185.741 131.853 183.64 131.554 181.516C131.3 179.733 130.949 177.966 130.501 176.221C128.02 166.409 122.766 157.749 117.348 149.207C111.438 139.886 105.739 130.53 103.305 119.524C102.24 114.686 98.6245 113.474 94.4409 116.353C87.5542 121.034 81.5335 126.762 76.5777 131.513C71.0843 137.685 66.3484 144.491 62.4707 151.787C56.8889 162.329 54.0706 174.113 54.2793 186.039C54.2793 186.624 54.2793 187.21 54.3261 187.795C54.7473 198.016 57.4213 207.314 63.3133 214.955H2L22.1511 168.913L56.5846 90.2574L95.2192 2L133.836 90.2809L176.549 187.818L188.438 214.979H125.803Z" fill="#101210" stroke="#101210" stroke-width="2.92553" stroke-linecap="round" stroke-linejoin="round"/>
</svg>
